# xmcd CD database file
#
# Track frame offsets:
#	150
#	26154
#	52431
#	87215
#	126956
#	147555
#	201456
#	209519
#
# Disc length: 2993 seconds
#
# Revision: 0
# Processed by: cddbd v1.5.2PL0 Copyright (c) Steve Scherf et al.
# Submitted via: CDex 1.51
#
DISCID=870baf08
DTITLE=松尾泰伸 - KUMANO
DYEAR=2008
DGENRE=New Age
TTITLE0=天上の華
TTITLE1=天上の華 (piano type)
TTITLE2=望郷
TTITLE3=いのり　―熊野のテーマ―
TTITLE4=ANCIENT ROAD
TTITLE5=いつまでも
TTITLE6=春の雪
TTITLE7=A MUSICAL OFFERING SUSANOO
EXTD=YEAR: 2008
EXTT0=
EXTT1=
EXTT2=
EXTT3=
EXTT4=
EXTT5=
EXTT6=
EXTT7=
PLAYORDER=
